<?xml version="1.0" encoding="utf-8" ?>
<svg xmlns="http://www.w3.org/2000/svg" xmlns:xlink="http://www.w3.org/1999/xlink" width="351" height="215" viewBox="0 0 351 215">
	<defs>
		<filter id="filter2303271114" filterUnits="userSpaceOnUse" color-interpolation-filters="sRGB">
			<feComponentTransfer in="SourceAlpha" result="componentTransfer8580304354">
				<feFuncR type="linear" slope="0" intercept="0"/>
				<feFuncG type="linear" slope="0" intercept="0"/>
				<feFuncB type="linear" slope="0" intercept="0"/>
				<feFuncA type="linear" slope="10000" intercept="0"/>
			</feComponentTransfer>
			<feComponentTransfer in="componentTransfer8580304354" result="componentTransfer0331741843">
				<feFuncA type="linear" slope="0.2" intercept="0"/>
			</feComponentTransfer>
			<feOffset dx="0" dy="4" in="componentTransfer0331741843" result="offset8589096210"/>
			<feGaussianBlur stdDeviation="2" in="offset8589096210" result="gaussianBlur4634141337"/>
			<feComponentTransfer in="SourceAlpha" result="componentTransfer7047301598">
				<feFuncR type="linear" slope="0" intercept="0"/>
				<feFuncG type="linear" slope="0" intercept="0"/>
				<feFuncB type="linear" slope="0" intercept="0"/>
				<feFuncA type="linear" slope="10000" intercept="0"/>
			</feComponentTransfer>
			<feComponentTransfer in="componentTransfer7047301598" result="componentTransfer4766800910">
				<feFuncA type="linear" slope="0.2" intercept="0"/>
			</feComponentTransfer>
			<feOffset dx="0" dy="4" in="componentTransfer4766800910" result="offset8996537848"/>
			<feGaussianBlur stdDeviation="2" in="offset8996537848" result="gaussianBlur4215809901"/>
			<feComponentTransfer in="SourceAlpha" result="componentTransfer3043339431">
				<feFuncR type="linear" slope="0" intercept="0"/>
				<feFuncG type="linear" slope="0" intercept="0"/>
				<feFuncB type="linear" slope="0" intercept="0"/>
				<feFuncA type="linear" slope="10000" intercept="0"/>
			</feComponentTransfer>
			<feComponentTransfer in="componentTransfer3043339431" result="componentTransfer2322558591">
				<feFuncA type="linear" slope="0.2" intercept="0"/>
			</feComponentTransfer>
			<feOffset dx="0" dy="4" in="componentTransfer2322558591" result="offset5722680822"/>
			<feGaussianBlur stdDeviation="2" in="offset5722680822" result="gaussianBlur2147810430"/>
			<feMerge>
				<feMergeNode in="gaussianBlur4634141337"/>
				<feMergeNode in="gaussianBlur4215809901"/>
				<feMergeNode in="gaussianBlur2147810430"/>
				<feMergeNode in="SourceGraphic"/>
			</feMerge>
		</filter>
	</defs>
	<g filter="url(#filter2303271114)">
		<path transform="matrix(1 0 0 1 4 0)" d="M0 8C0 3.58172 3.58172 0 8 0L335 0C339.418 0 343 3.58172 343 8L343 76.1321C339.021 76.8409 336.001 80.3176 336.001 84.5C336.001 88.6824 339.021 92.1591 343 92.8679L343 199C343 203.418 339.418 207 335 207L8 207C3.58174 207 0 203.418 0 199L0 92.8779C4.00684 92.1924 7.0564 88.7025 7.0564 84.5C7.0564 80.2975 4.00684 76.8076 0 76.1221L0 8Z" fill-rule="evenodd" fill="rgb(255, 255, 255)"/>
	</g>
	<path transform="matrix(1 0 0 1 12 85)" d="M0 -2L0.976071 -2Q1.07456 -2 1.17116 -1.98079Q1.26776 -1.96157 1.35875 -1.92388Q1.44975 -1.88619 1.53164 -1.83147Q1.61353 -1.77675 1.68318 -1.70711Q1.75282 -1.63746 1.80754 -1.55557Q1.86226 -1.47368 1.89995 -1.38268Q1.93764 -1.29169 1.95686 -1.19509Q1.97607 -1.09849 1.97607 -1Q1.97607 -0.901509 1.95686 -0.80491Q1.93764 -0.708311 1.89995 -0.617316Q1.86226 -0.526322 1.80754 -0.44443Q1.75282 -0.362537 1.68318 -0.292893Q1.61353 -0.223249 1.53164 -0.16853Q1.44975 -0.113811 1.35875 -0.0761205Q1.26776 -0.0384294 1.17116 -0.0192147Q1.07456 0 0.976071 0L0 0Q-0.0984914 0 -0.19509 -0.0192147Q-0.291689 -0.0384294 -0.382683 -0.0761205Q-0.473678 -0.113811 -0.55557 -0.16853Q-0.637463 -0.223249 -0.707107 -0.292893Q-0.776751 -0.362537 -0.831469 -0.44443Q-0.886188 -0.526322 -0.923879 -0.617316Q-0.961571 -0.708311 -0.980785 -0.80491Q-1 -0.901509 -1 -1Q-1 -1.09849 -0.980785 -1.19509Q-0.96157 -1.29169 -0.923879 -1.38268Q-0.886188 -1.47368 -0.83147 -1.55557Q-0.776751 -1.63746 -0.707107 -1.70711Q-0.637463 -1.77675 -0.55557 -1.83147Q-0.473678 -1.88619 -0.382683 -1.92388Q-0.291689 -1.96157 -0.19509 -1.98079Q-0.0984914 -2 0 -2ZM15.0636 0L13.2347 0C12.6824 0 12.2347 -0.447715 12.2347 -1C12.2347 -1.55228 12.6824 -2 13.2347 -2L15.0636 -2C15.6158 -2 16.0636 -1.55228 16.0636 -1C16.0636 -0.447715 15.6158 0 15.0636 0ZM29.4013 0L27.542 0C26.9897 0 26.542 -0.447715 26.542 -1C26.542 -1.55228 26.9897 -2 27.542 -2L29.4013 -2C29.9536 -2 30.4013 -1.55228 30.4013 -1C30.4013 -0.447715 29.9536 0 29.4013 0ZM43.7647 0L41.5755 0C41.0232 0 40.5755 -0.447715 40.5755 -1C40.5755 -1.55228 41.0232 -2 41.5755 -2L43.7647 -2C44.317 -2 44.7647 -1.55228 44.7647 -1C44.7647 -0.447715 44.317 0 43.7647 0ZM57.7681 0L55.3359 0C54.7837 0 54.3359 -0.447715 54.3359 -1C54.3359 -1.55228 54.7837 -2 55.3359 -2L57.7681 -2C58.3204 -2 58.7681 -1.55228 58.7681 -1C58.7681 -0.447715 58.3204 0 57.7681 0ZM71.3381 0L69.5897 0C69.0374 0 68.5897 -0.447715 68.5897 -1C68.5897 -1.55228 69.0374 -2 69.5897 -2L71.3381 -2C71.8903 -2 72.3381 -1.55228 72.3381 -1C72.3381 -0.447715 71.8903 0 71.3381 0ZM85.8033 0L83.9514 0C83.3991 0 82.9514 -0.447715 82.9514 -1C82.9514 -1.55228 83.3991 -2 83.9514 -2L85.8033 -2C86.3555 -2 86.8033 -1.55228 86.8033 -1C86.8033 -0.447715 86.3555 0 85.8033 0ZM100.04 0L98.1085 0C97.5562 0 97.1085 -0.447715 97.1085 -1C97.1085 -1.55228 97.5562 -2 98.1085 -2L100.04 -2C100.592 -2 101.04 -1.55228 101.04 -1C101.04 -0.447715 100.592 0 100.04 0ZM113.802 0L111.812 0C111.259 0 110.812 -0.447715 110.812 -1C110.812 -1.55228 111.259 -2 111.812 -2L113.802 -2C114.354 -2 114.802 -1.55228 114.802 -1C114.802 -0.447715 114.354 0 113.802 0ZM127.915 0L125.882 0C125.329 0 124.882 -0.447715 124.882 -1C124.882 -1.55228 125.329 -2 125.882 -2L127.915 -2C128.468 -2 128.915 -1.55228 128.915 -1C128.915 -0.447715 128.468 0 127.915 0ZM142.278 0L140.215 0C139.662 0 139.215 -0.447715 139.215 -1C139.215 -1.55228 139.662 -2 140.215 -2L142.278 -2C142.83 -2 143.278 -1.55228 143.278 -1C143.278 -0.447715 142.83 0 142.278 0ZM156.784 0L154.707 0C154.155 0 153.707 -0.447715 153.707 -1C153.707 -1.55228 154.155 -2 154.707 -2L156.784 -2C157.336 -2 157.784 -1.55228 157.784 -1C157.784 -0.447715 157.336 0 156.784 0ZM170.293 0L168.216 0C167.664 0 167.216 -0.447715 167.216 -1C167.216 -1.55228 167.664 -2 168.216 -2L170.293 -2C170.845 -2 171.293 -1.55228 171.293 -1C171.293 -0.447715 170.845 0 170.293 0ZM184.785 0L182.722 0C182.17 0 181.722 -0.447715 181.722 -1C181.722 -1.55228 182.17 -2 182.722 -2L184.785 -2C185.338 -2 185.785 -1.55228 185.785 -1C185.785 -0.447715 185.338 0 184.785 0ZM199.118 0L197.085 0C196.532 0 196.085 -0.447715 196.085 -1C196.085 -1.55228 196.532 -2 197.085 -2L199.118 -2C199.671 -2 200.118 -1.55228 200.118 -1C200.118 -0.447715 199.671 0 199.118 0ZM213.188 0L211.198 0C210.646 0 210.198 -0.447715 210.198 -1C210.198 -1.55228 210.646 -2 211.198 -2L213.188 -2C213.741 -2 214.188 -1.55228 214.188 -1C214.188 -0.447715 213.741 0 213.188 0ZM226.891 0L224.96 0C224.408 0 223.96 -0.447715 223.96 -1C223.96 -1.55228 224.408 -2 224.96 -2L226.891 -2C227.444 -2 227.891 -1.55228 227.891 -1C227.891 -0.447715 227.444 0 226.891 0ZM241.049 0L239.197 0C238.644 0 238.197 -0.447715 238.197 -1C238.197 -1.55228 238.644 -2 239.197 -2L241.049 -2C241.601 -2 242.049 -1.55228 242.049 -1C242.049 -0.447715 241.601 0 241.049 0ZM255.41 0L253.662 0C253.11 0 252.662 -0.447715 252.662 -1C252.662 -1.55228 253.11 -2 253.662 -2L255.41 -2C255.963 -2 256.41 -1.55228 256.41 -1C256.41 -0.447715 255.963 0 255.41 0ZM269.664 0L267.232 0C266.68 0 266.232 -0.447715 266.232 -1C266.232 -1.55228 266.68 -2 267.232 -2L269.664 -2C270.216 -2 270.664 -1.55228 270.664 -1C270.664 -0.447715 270.216 0 269.664 0ZM283.424 0L281.235 0C280.683 0 280.235 -0.447715 280.235 -1C280.235 -1.55228 280.683 -2 281.235 -2L283.424 -2C283.977 -2 284.424 -1.55228 284.424 -1C284.424 -0.447715 283.977 0 283.424 0ZM297.458 0L295.599 0C295.046 0 294.599 -0.447715 294.599 -1C294.599 -1.55228 295.046 -2 295.599 -2L297.458 -2C298.01 -2 298.458 -1.55228 298.458 -1C298.458 -0.447715 298.01 0 297.458 0ZM311.765 0L309.936 0C309.384 0 308.936 -0.447715 308.936 -1C308.936 -1.55228 309.384 -2 309.936 -2L311.765 -2C312.318 -2 312.765 -1.55228 312.765 -1C312.765 -0.447715 312.318 0 311.765 0ZM325 0L324.024 0Q323.925 0 323.829 -0.0192147Q323.732 -0.0384294 323.641 -0.0761205Q323.55 -0.113811 323.468 -0.16853Q323.386 -0.223249 323.317 -0.292893Q323.247 -0.362537 323.192 -0.44443Q323.138 -0.526322 323.1 -0.617316Q323.062 -0.708311 323.043 -0.80491Q323.024 -0.901509 323.024 -1Q323.024 -1.09849 323.043 -1.19509Q323.062 -1.29169 323.1 -1.38268Q323.138 -1.47368 323.192 -1.55557Q323.247 -1.63746 323.317 -1.70711Q323.386 -1.77675 323.468 -1.83147Q323.55 -1.88619 323.641 -1.92388Q323.732 -1.96157 323.829 -1.98079Q323.925 -2 324.024 -2L325 -2Q325.098 -2 325.195 -1.98079Q325.292 -1.96157 325.383 -1.92388Q325.474 -1.88619 325.556 -1.83147Q325.637 -1.77675 325.707 -1.70711Q325.777 -1.63746 325.831 -1.55557Q325.886 -1.47368 325.924 -1.38268Q325.962 -1.29169 325.981 -1.19509Q326 -1.09849 326 -1Q326 -0.901509 325.981 -0.80491Q325.962 -0.708311 325.924 -0.617316Q325.886 -0.526322 325.831 -0.44443Q325.777 -0.362537 325.707 -0.292893Q325.637 -0.223249 325.556 -0.16853Q325.474 -0.113811 325.383 -0.0761205Q325.292 -0.0384294 325.195 -0.0192147Q325.098 0 325 0Z" fill-rule="evenodd" fill="rgb(64, 47, 255)" fill-opacity="0.2"/>
</svg>
