<?xml version="1.0" standalone="no"?>
<!DOCTYPE svg PUBLIC "-//W3C//DTD SVG 20010904//EN"
 "http://www.w3.org/TR/2001/REC-SVG-20010904/DTD/svg10.dtd">
<svg version="1.0" xmlns="http://www.w3.org/2000/svg"
 width="512.000000pt" height="512.000000pt" viewBox="0 0 512.000000 512.000000"
 preserveAspectRatio="xMidYMid meet">

<g transform="translate(0.000000,512.000000) scale(0.100000,-0.100000)"
fill="#000000" stroke="none">
<path d="M1315 5105 c-231 -43 -434 -150 -595 -315 -133 -135 -228 -304 -277
-488 -22 -82 -26 -121 -27 -247 0 -82 3 -175 7 -205 l8 -56 -50 -13 c-65 -16
-158 -77 -199 -129 -18 -22 -45 -67 -60 -99 l-27 -58 -3 -1582 c-2 -1581 -2
-1582 19 -1637 43 -116 126 -203 239 -249 l55 -22 800 -3 c583 -2 815 0 855 8
166 36 293 170 320 340 6 41 10 390 10 943 l0 877 58 0 c118 0 250 55 348 144
l61 55 659 -660 c362 -363 671 -667 686 -675 32 -17 625 -126 685 -126 80 0
143 62 143 141 0 66 -109 652 -129 691 -15 30 -39 46 -177 117 l-159 81 -33
106 c-41 134 -57 150 -188 192 l-99 32 -26 84 c-47 151 -60 163 -212 208 l-77
23 -32 101 -31 101 -147 150 -148 150 52 57 c92 101 146 237 146 370 0 92 -16
159 -57 248 -34 71 -56 95 -424 465 -407 409 -443 439 -568 482 -81 28 -230
31 -308 8 l-51 -15 -94 93 c-209 210 -446 314 -738 322 -93 3 -160 0 -215 -10z
m393 -314 c40 -12 104 -37 141 -56 79 -39 208 -139 241 -185 l23 -32 -359
-359 -359 -359 -326 0 -327 0 -12 48 c-7 26 -15 92 -18 148 -11 228 75 445
239 600 130 122 266 191 434 217 68 11 251 -2 323 -22z m958 -386 c36 -18 140
-116 405 -382 196 -197 364 -373 374 -392 24 -47 30 -131 14 -188 -10 -38 -32
-67 -106 -145 -122 -127 -154 -201 -122 -285 6 -15 93 -111 195 -213 101 -102
184 -189 184 -194 0 -4 14 -53 31 -108 43 -138 63 -159 190 -198 l99 -31 30
-98 c39 -126 59 -145 188 -187 l97 -31 32 -98 c18 -54 42 -109 55 -122 13 -14
86 -57 163 -95 77 -39 141 -71 142 -72 3 -2 61 -321 59 -323 -1 -2 -82 12
-180 31 l-177 33 -702 701 c-783 781 -724 732 -834 698 -44 -14 -72 -34 -152
-112 -110 -105 -145 -124 -228 -124 -108 0 -122 11 -524 416 -394 397 -393
395 -393 499 0 103 0 103 388 493 336 338 361 361 370 340 6 -13 10 -95 10
-183 1 -172 -1 -184 -64 -339 -35 -86 -35 -117 0 -173 39 -65 136 -85 204 -43
38 23 72 84 112 204 71 208 73 470 6 684 l-20 62 52 0 c35 0 68 -8 102 -25z
m-1458 -1015 l-1 -110 -36 -17 c-98 -49 -110 -198 -19 -257 29 -19 126 -43
203 -52 l60 -6 338 -337 337 -336 -2 -950 c-3 -1032 0 -974 -59 -1009 -24 -14
-106 -16 -799 -16 l-772 0 -34 34 -34 34 0 1532 0 1532 34 34 34 34 375 0 375
0 0 -110z"/>
<path d="M802 2083 c-18 -9 -43 -30 -55 -47 l-22 -31 -3 -643 c-2 -580 -1
-646 14 -678 52 -110 211 -109 264 1 18 38 20 62 20 278 l0 237 215 0 214 0 3
-249 c3 -275 3 -274 72 -325 40 -30 120 -29 165 3 63 45 61 26 61 729 l0 639
-23 34 c-61 91 -181 89 -251 -5 -20 -26 -21 -43 -24 -277 l-3 -249 -214 0
-215 0 0 237 c0 216 -2 240 -20 278 -36 74 -125 104 -198 68z"/>
</g>
</svg>
